<svg width="118" height="48" viewBox="0 0 118 48" fill="none" xmlns="http://www.w3.org/2000/svg">
<path d="M113.051 5C112.944 5 112.861 4.96987 112.8 4.9096C112.745 4.84933 112.717 4.76588 112.717 4.65925V0.340751C112.717 0.229485 112.747 0.146036 112.807 0.090403C112.868 0.0301343 112.949 0 113.051 0C113.148 0 113.222 0.0185442 113.273 0.0556325C113.329 0.0880851 113.38 0.148354 113.426 0.236439L115.248 3.637H115.033L116.848 0.236439C116.894 0.148354 116.943 0.0880851 116.994 0.0556325C117.045 0.0185442 117.119 0 117.216 0C117.318 0 117.397 0.0301343 117.453 0.090403C117.508 0.146036 117.536 0.229485 117.536 0.340751V4.65925C117.536 4.76588 117.508 4.84933 117.453 4.9096C117.402 4.96987 117.323 5 117.216 5C117.11 5 117.029 4.96987 116.973 4.9096C116.917 4.84933 116.89 4.76588 116.89 4.65925V1.07093H117.043L115.429 4.05424C115.392 4.12378 115.353 4.17478 115.311 4.20723C115.269 4.23968 115.211 4.25591 115.137 4.25591C115.063 4.25591 115.003 4.23968 114.956 4.20723C114.91 4.17014 114.868 4.11915 114.831 4.05424L113.204 1.06398H113.371V4.65925C113.371 4.76588 113.343 4.84933 113.287 4.9096C113.236 4.96987 113.157 5 113.051 5Z" fill="#4E9168"/>
<path d="M110.149 5.00015C110.033 5.00015 109.943 4.9677 109.878 4.90279C109.817 4.83789 109.787 4.74748 109.787 4.63158V0.653835H108.313C108.216 0.653835 108.139 0.628337 108.083 0.57734C108.028 0.521707 108 0.445212 108 0.347854C108 0.250497 108.028 0.17632 108.083 0.125324C108.139 0.0743266 108.216 0.0488281 108.313 0.0488281H111.978C112.08 0.0488281 112.159 0.0743266 112.214 0.125324C112.27 0.17632 112.298 0.250497 112.298 0.347854C112.298 0.445212 112.27 0.521707 112.214 0.57734C112.159 0.628337 112.08 0.653835 111.978 0.653835H110.504V4.63158C110.504 4.74748 110.473 4.83789 110.413 4.90279C110.358 4.9677 110.269 5.00015 110.149 5.00015Z" fill="#4E9168"/>
<path d="M95.7947 12.5941C95.9565 10.7448 95.69 9.02572 94.9926 7.47566C95.4287 7.32527 95.8512 7.1454 96.2589 6.93454C97.936 6.06716 98.9766 4.60175 99.1432 2.69776C99.1745 2.33956 99.1655 1.98706 99.1161 1.64406L101.114 1.4341C102.275 1.31202 103.091 1.34721 103.56 1.53967C103.995 1.73571 104.245 2.1412 104.309 2.75611C104.363 3.26855 104.287 3.69106 104.08 4.02365C103.873 4.35624 103.612 4.66006 103.295 4.9351C102.979 5.21014 102.685 5.53463 102.413 5.90857C102.107 6.2861 101.876 6.88029 101.72 7.69115C101.559 8.46785 101.54 9.43696 101.663 10.5985L103.268 25.8689C103.817 31.0957 105.236 33.5889 107.525 33.3483C108.481 33.2478 109.173 32.7606 109.599 31.8869C109.991 31.0167 110.234 29.7132 110.328 27.9764C110.353 26.903 110.656 26.0076 111.237 25.2903C111.814 24.5389 112.667 24.1039 113.794 23.9854C114.819 23.8777 115.726 24.1278 116.515 24.7356C117.304 25.3434 117.765 26.2794 117.898 27.5434C118.153 29.9689 117.467 32.1479 115.839 34.0805C114.208 35.9789 111.753 37.1004 108.474 37.4451C106.321 37.6713 104.448 37.5919 102.853 37.2069C101.255 36.7877 99.9648 36.1807 98.9832 35.3859C98.2195 34.7674 97.552 33.9714 96.981 32.9981C97.1944 32.3358 97.3358 31.6327 97.4009 30.8891C97.6105 28.4933 96.9611 26.331 95.3444 24.6136C95.0507 24.3016 94.7355 24.0182 94.4007 23.7619C94.364 23.4562 94.3289 23.1431 94.2952 22.8227L93.808 17.9765C94.9429 16.445 95.6156 14.6414 95.7947 12.5941Z" fill="#4E9168"/>
<path d="M71.3376 8.39011C72.339 7.53877 73.5678 7.03613 74.9783 7.15955C76.1517 7.26222 77.1614 7.80198 77.9103 8.69446C78.0544 8.86616 78.1831 9.04469 78.2964 9.22917C78.4886 8.30166 78.8495 7.5307 79.379 6.9163C80.0698 6.1147 80.9114 5.75731 81.9037 5.84413C83.3752 5.97286 84.437 6.8416 85.0894 8.45034C85.7759 10.0621 86.0384 11.7919 85.8767 13.6397C85.748 15.1112 85.3397 16.2306 84.6519 16.998C83.9983 17.7683 83.1924 18.1116 82.2343 18.0278C80.6944 17.8931 79.5953 17.0555 78.937 15.5152C78.6951 14.9905 78.5064 14.4308 78.3707 13.8362C77.8783 14.8123 77.0764 15.5922 76.0239 16.1366C75.6162 16.3474 75.1936 16.5273 74.7575 16.6777C75.2514 17.7752 75.5291 18.9576 75.5917 20.2108C75.7013 20.1054 75.8262 20.0052 75.9663 19.9104C77.4019 20.4497 78.9922 20.7957 80.7374 20.9484L81.1481 20.9844C84.6132 21.1841 87.5187 20.49 89.8644 18.9022C92.2101 17.3144 93.5027 15.1517 93.7423 12.4141C93.9638 9.8819 93.2195 7.74789 91.5094 6.01212C92.9616 5.96677 94.2294 5.66391 95.3128 5.10355C96.3963 4.5432 96.9889 3.68128 97.0907 2.51782C97.1476 1.86765 96.9731 1.30067 96.5672 0.816902C96.1612 0.333127 95.6503 0.0642941 95.0343 0.0104052C94.1446 -0.0674342 93.3201 0.291454 92.5609 1.08707C90.7969 2.72577 89.0594 3.47028 87.3484 3.32059C87.0062 3.29065 86.5629 3.23462 86.0184 3.1525C85.5111 3.03916 85.1548 2.9735 84.9494 2.95554L83.3069 2.81184C79.8417 2.61212 76.8589 3.40284 74.3583 5.18399C73.033 6.12799 72.0261 7.1967 71.3376 8.39011Z" fill="#4E9168"/>
<path fill-rule="evenodd" clip-rule="evenodd" d="M75.4665 22.5707C75.0023 25.5903 73.4046 28.0373 70.7838 29.8113C70.0893 30.2813 69.3591 30.6814 68.5954 31.014L68.598 31.0142C71.2157 31.2433 73.4889 32.0945 75.1091 33.8156C76.3339 35.1167 77.0034 36.673 77.165 38.3928C77.8869 38.5141 78.6297 38.6082 79.3934 38.675C83.842 39.0642 87.5441 38.5261 90.4998 37.0606C93.4867 35.6323 95.1029 33.5152 95.3484 30.7092C95.5131 28.8271 95.0118 27.2661 93.8444 26.026C92.6771 24.786 90.9471 24.0657 88.6544 23.8651C87.9015 23.7993 86.3013 23.7627 83.8538 23.7555C81.4092 23.714 79.6737 23.6484 78.6471 23.5586C77.0838 23.4218 76.0236 23.0925 75.4665 22.5707ZM81.1315 35.3617C76.5461 34.9605 74.3402 33.7676 74.5139 31.7828C74.6246 30.5167 75.45 29.951 76.9899 30.0857L78.1704 30.189C79.1286 30.2729 80.3992 30.3323 81.9823 30.3674C83.5624 30.4366 84.7973 30.5102 85.687 30.588L85.841 30.6015C87.4493 30.7422 88.1995 31.4285 88.0918 32.6604C87.9002 34.8505 85.5801 35.7509 81.1315 35.3617Z" fill="#4E9168"/>
<path fill-rule="evenodd" clip-rule="evenodd" d="M49.2801 35.1864C49.748 35.9207 50.4575 36.5631 51.4085 37.1137C50.4174 37.4063 49.5995 37.8864 48.9549 38.5541C48.3445 39.2248 48.0034 39.9708 47.9316 40.7921C47.8118 42.1609 48.3259 43.3782 49.474 44.4442C50.6563 45.5131 52.0693 46.3091 53.7131 46.8323C55.3912 47.3584 57.2055 47.7068 59.156 47.8775C63.6045 48.2667 67.3067 47.7286 70.2624 46.2632C73.2493 44.8349 74.8655 42.7178 75.1111 39.9118C75.2757 38.0297 74.7744 36.4687 73.6071 35.2286C72.4398 33.9886 70.7098 33.2683 68.4171 33.0677C67.6643 33.0018 66.0641 32.9652 63.6165 32.958C61.172 32.9165 59.4364 32.8508 58.4098 32.761C55.9179 32.5429 54.7043 31.8357 54.769 30.6393C54.7074 30.7674 54.6406 30.89 54.5707 31.0065C54.1705 31.6728 53.5945 32.2675 52.9611 32.8L52.9507 32.8087L52.9402 32.8173C52.029 33.5631 50.8916 34.3019 49.5614 35.0394L49.5409 35.0508L49.5201 35.0617C49.4397 35.1039 49.3597 35.1455 49.2801 35.1864ZM60.8941 44.5642C56.3087 44.1629 54.1028 42.9699 54.2765 40.9852C54.3873 39.7191 55.2126 39.1534 56.7525 39.2881L57.9331 39.3914C58.8912 39.4753 60.1618 39.5347 61.7449 39.5698C63.325 39.6391 64.5599 39.7127 65.4496 39.7905L65.6036 39.804C67.2119 39.9447 67.9622 40.6311 67.8544 41.863C67.6627 44.053 65.3427 44.9534 60.8941 44.5642Z" fill="#4E9168"/>
<path fill-rule="evenodd" clip-rule="evenodd" d="M55.0768 29.7379C55.1585 29.3374 55.1737 28.9054 55.0855 28.452C54.8806 27.3975 54.1982 26.6544 53.3717 26.2355C52.8889 25.9909 52.3803 25.8051 51.8512 25.6741C51.8175 25.6503 51.7515 25.5972 51.6571 25.4951C51.5393 25.3484 51.3821 25.0619 51.277 24.5208L50.3006 19.4977C50.8525 17.5113 52.1261 15.8075 54.1213 14.3864C56.6218 12.6052 59.6047 11.8146 63.0699 12.0143L64.7124 12.158C64.9177 12.176 65.274 12.2417 65.7814 12.355C66.3259 12.4371 66.7692 12.4932 67.1114 12.5231C68.8224 12.6728 70.5599 11.9283 72.3239 10.2897C73.0832 9.49406 73.9076 9.13518 74.7973 9.21303C75.4133 9.26693 75.9242 9.53577 76.3302 10.0195C76.7361 10.5033 76.9106 11.0703 76.8537 11.7205C76.7519 12.8839 76.1593 13.7458 75.0758 14.3062C73.9923 14.8665 72.7245 15.1694 71.2723 15.2147C72.9824 16.9505 73.7267 19.0845 73.5051 21.6168C73.2656 24.3543 71.9729 26.517 69.6272 28.1048C67.2814 29.6926 64.376 30.3866 60.9108 30.1868L60.5002 30.1509C58.755 29.9982 57.1646 29.6521 55.7291 29.1127C55.4518 29.3005 55.2343 29.5089 55.0768 29.7379ZM61.9971 27.2302C60.4572 27.0955 59.3581 26.258 58.6998 24.7177C58.0043 23.2086 57.7479 21.4104 57.9305 19.323C58.0473 17.9884 58.4511 16.9203 59.1419 16.1187C59.8327 15.3171 60.6743 14.9598 61.6667 15.0466C63.1381 15.1753 64.2 16.0441 64.8523 17.6528C65.5388 19.2646 65.8012 20.9944 65.6395 22.8422C65.5108 24.3137 65.1025 25.4331 64.4147 26.2005C63.7611 26.9708 62.9552 27.3141 61.9971 27.2302Z" fill="#4E9168"/>
<path d="M0.0517875 27.5434C0.184639 26.2794 0.645673 25.3435 1.43489 24.7357C2.22411 24.1278 3.13114 23.8778 4.15601 23.9855C5.28336 24.104 6.13567 24.5389 6.71294 25.2904C7.29379 26.0077 7.59689 26.9031 7.62223 27.9764C7.716 29.7133 7.95893 31.0168 8.35103 31.8869C8.77729 32.7607 9.46869 33.2478 10.4252 33.3484C12.7141 33.5889 14.1332 31.0958 14.6826 25.869L16.2875 10.5985C16.4096 9.43703 16.3906 8.46792 16.2305 7.69122C16.0739 6.88036 15.8428 6.28617 15.5371 5.90864C15.2655 5.5347 14.9715 5.21021 14.655 4.93517C14.3385 4.66013 14.0769 4.35631 13.87 4.02372C13.6632 3.69113 13.5867 3.26861 13.6406 2.75618C13.7052 2.14126 13.9551 1.73578 14.3902 1.53973C14.8594 1.34728 15.6748 1.31209 16.8363 1.43417L26.265 2.42517C27.3582 2.54007 28.1143 2.74042 28.5333 3.02624C28.9522 3.31205 29.1294 3.76241 29.0648 4.37733C29.0109 4.88976 28.8483 5.28714 28.5768 5.56947C28.3054 5.85179 27.9863 6.09457 27.6195 6.2978C27.2528 6.50103 26.8806 6.7555 26.5031 7.06122C26.1256 7.36693 25.7759 7.90009 25.4542 8.66068C25.1361 9.38711 24.916 10.3311 24.7939 11.4926L23.6549 22.8227C23.4466 24.8041 23.1817 26.5033 22.8601 27.9201C22.5726 29.3406 22.0973 30.7413 21.434 32.1222C20.7708 33.5032 19.9484 34.5911 18.9668 35.3859C17.9853 36.1808 16.6953 36.7878 15.097 37.207C13.5022 37.592 11.6288 37.6714 9.47654 37.4452C6.19697 37.1005 3.74166 35.9789 2.1106 34.0805C0.483127 32.148 -0.203144 29.9689 0.0517875 27.5434Z" fill="#4E9168"/>
<path d="M24.964 27.9466C25.2653 26.5239 25.5103 24.8844 25.7044 23.0383L25.7048 23.0336L26.7582 12.5557C27.7702 12.0005 28.4416 11.6907 28.7723 11.6264C29.6153 11.4626 30.1482 11.9539 30.371 13.1003L31.6674 20.0394L32.8177 25.9572C33.1781 27.8117 33.703 29.1619 34.3924 30.0077C35.1088 30.8133 36.0909 31.0948 37.3385 30.8523C38.5861 30.6098 39.5471 29.7931 40.2216 28.4022C40.9232 26.9711 41.0872 25.2945 40.7136 23.3725L39.76 18.4664C39.5896 17.5897 39.2529 16.9378 38.7499 16.5106C38.2404 16.0498 37.7539 15.7069 37.2902 15.4821C36.8538 15.217 36.5962 14.8822 36.5176 14.4775C36.3931 13.8369 36.8211 13.1588 37.8018 12.4433C38.7554 11.768 40.0531 10.9733 41.6951 10.0593C43.3642 9.10497 44.4011 8.58849 44.8057 8.50983C45.6487 8.34597 46.1816 8.83727 46.4045 9.98372L47.7008 16.9228L49.2542 24.9143C49.4115 25.7236 49.6943 26.3684 50.1027 26.849C50.5045 27.2958 50.9072 27.5674 51.3109 27.6639C51.7146 27.7604 52.0911 27.8972 52.4404 28.0742C52.7898 28.2513 52.9972 28.5084 53.0628 28.8456C53.1939 29.52 52.718 30.3123 51.6352 31.2227C50.8503 31.8651 49.826 32.5366 48.5625 33.2372C47.2923 33.904 46.3032 34.3062 45.5951 34.4438C44.8196 34.5946 44.2005 34.47 43.7378 34.07C43.3023 33.6298 42.9394 32.843 42.6491 31.7096L42.4314 30.8596C41.7363 32.3245 40.7664 33.5453 39.5215 34.5221C38.2767 35.499 36.9799 36.1185 35.6311 36.3806C32.765 36.9378 30.4131 36.4501 28.5756 34.9177C26.7985 33.4016 25.5947 31.0779 24.964 27.9466Z" fill="#4E9168"/>
</svg>
